<svg width="102" height="88" viewBox="0 0 102 88" fill="none" xmlns="http://www.w3.org/2000/svg">
<path d="M51 56.7421C49.2398 56.7421 47.813 55.3151 47.813 53.555V31.2456C47.813 29.4855 49.2398 28.0585 51 28.0585C52.7603 28.0585 54.1871 29.4855 54.1871 31.2456V53.555C54.1871 55.3153 52.7603 56.7421 51 56.7421Z" fill="#8C52E5"/>
<path d="M100.651 72.7431L60.9738 6.61553C56.4721 -0.890206 45.5373 -0.904747 41.0268 6.61553L1.34965 72.7431C-2.40252 78.9967 2.11175 87.0192 9.43284 87.0192H92.5674C99.8897 87.0192 104.402 78.9958 100.651 72.7431ZM92.5674 80.6451H9.43304C7.05828 80.6451 5.60219 78.0416 6.81566 76.0218L46.4926 9.89422C48.5282 6.50139 53.4699 6.49741 55.508 9.89422L95.185 76.0218C96.3971 78.0394 94.9444 80.6451 92.5674 80.6451Z" fill="#8C52E5"/>
<path d="M51.0003 69.4903C53.6406 69.4903 55.7809 67.35 55.7809 64.7097C55.7809 62.0695 53.6406 59.9291 51.0003 59.9291C48.3601 59.9291 46.2197 62.0695 46.2197 64.7097C46.2197 67.35 48.3601 69.4903 51.0003 69.4903Z" fill="#8C52E5"/>
</svg>
