<svg width="537" height="521" viewBox="0 0 537 521" fill="none" xmlns="http://www.w3.org/2000/svg">
<g clip-path="url(#clip0)">
<path opacity="0.18" d="M163.663 351.618C198.878 367.116 238.708 366.877 277.176 366.366C297.355 366.11 318.232 365.701 336.606 357.33C362.149 345.685 378.735 320.691 401.145 303.779C426.876 284.326 459.809 275.938 484.756 255.496C496.898 245.554 506.73 233.082 513.568 218.949C520.406 204.815 524.085 189.36 524.349 173.657C524.613 157.955 521.456 142.384 515.098 128.028C508.739 113.672 499.332 100.876 487.532 90.5301C474.334 78.9709 458.583 70.8044 442.968 62.7744L364.551 22.3683C346.177 12.9061 327.326 3.29046 306.823 0.71606C289.522 -1.44916 272.017 1.55146 255.107 5.42158C206.916 16.3329 159.099 35.138 123.748 69.5599C93.3345 99.2251 73.479 139.069 40.2049 165.477C31.6906 172.212 22.2567 178.162 16.0582 187.061C-6.24935 219.131 16.3477 260.099 45.3306 276.535C85.4672 299.278 121.585 333.12 163.663 351.618Z" fill="#68DE5A"/>
<path d="M268.508 521C416.802 521 537.017 506.131 537.017 487.789C537.017 469.446 416.802 454.577 268.508 454.577C120.215 454.577 0 469.446 0 487.789C0 506.131 120.215 521 268.508 521Z" fill="#68DE5A"/>
<path d="M268.508 521C416.802 521 537.017 506.131 537.017 487.789C537.017 469.446 416.802 454.577 268.508 454.577C120.215 454.577 0 469.446 0 487.789C0 506.131 120.215 521 268.508 521Z" fill="url(#paint0_linear)"/>
<path d="M121.415 163.329C116.435 159.948 110.827 157.602 104.924 156.43C99.0212 155.259 92.9435 155.286 87.0512 156.51C84.8945 156.846 82.8568 157.72 81.1253 159.05C77.0895 162.46 77.7195 168.802 76.6467 174.019C75.3355 180.446 71.0272 185.953 69.4776 192.296C68.5752 197.068 68.5233 201.963 69.3244 206.753C71.5933 225.65 76.1154 244.206 82.7941 262.026L64.0625 509.083C64.0625 509.083 83.2198 512.186 122.079 515.289L126.2 280.013L121.415 163.329Z" fill="#EEA886"/>
<path d="M100.111 307.41L124.922 407.863V262.981L113.888 230.144L100.111 307.41Z" fill="url(#paint1_linear)"/>
<path d="M424.559 165.443C429.55 162.087 435.163 159.766 441.065 158.618C446.968 157.47 453.04 157.519 458.923 158.76C461.083 159.104 463.124 159.977 464.866 161.3C468.885 164.71 468.272 171.052 469.328 176.287C470.656 182.714 474.964 188.221 476.514 194.563C477.419 199.33 477.465 204.22 476.65 209.004C474.397 227.901 469.88 246.459 463.197 264.276L481.844 507.889C481.844 507.889 460.984 511.401 423.708 514.931L419.706 282.246L424.559 165.443Z" fill="#EEA886"/>
<path d="M449.047 300.233L440.243 345.498L421.495 386.33L419.843 297.471L449.047 300.233Z" fill="url(#paint2_linear)"/>
<path d="M435.9 82.5171H103.892C96.02 82.5171 89.6387 88.906 89.6387 96.7871V295.629C89.6387 303.511 96.02 309.899 103.892 309.899H435.9C443.772 309.899 450.153 303.511 450.153 295.629V96.7871C450.153 88.906 443.772 82.5171 435.9 82.5171Z" fill="#68DE5A"/>
<path d="M435.9 82.5171H103.892C96.02 82.5171 89.6387 88.906 89.6387 96.7871V295.629C89.6387 303.511 96.02 309.899 103.892 309.899H435.9C443.772 309.899 450.153 303.511 450.153 295.629V96.7871C450.153 88.906 443.772 82.5171 435.9 82.5171Z" fill="url(#paint3_linear)"/>
<path d="M435.9 73.3959H103.892C96.02 73.3959 89.6387 79.7848 89.6387 87.6659V286.508C89.6387 294.389 96.02 300.778 103.892 300.778H435.9C443.772 300.778 450.153 294.389 450.153 286.508V87.6659C450.153 79.7848 443.772 73.3959 435.9 73.3959Z" fill="#68DE5A"/>
<path d="M121.567 168.188C127.306 161.812 127.306 161.812 133.794 154.174L161.432 121.781C165.778 117.029 169.763 111.957 173.352 106.607H199.457C198.723 113.635 198.388 120.699 198.452 127.765V169.211H202.147C206.367 169.171 210.578 168.829 214.748 168.188V191.409C210.608 190.895 206.439 190.638 202.266 190.642H198.452V197.018C198.335 202.266 198.671 207.514 199.457 212.703H173.232C173.944 207.42 174.279 202.093 174.237 196.762V190.608H138.136C129.843 190.608 126.216 190.727 121.567 191.102V168.188ZM174.356 154.685C174.356 148.94 174.612 141.933 175.123 136.324C172.568 139.887 170.661 142.444 167.221 146.775L148.575 169.467H174.305L174.356 154.685Z" fill="white"/>
<path d="M235.813 203.139C231.748 199.134 228.579 194.311 226.515 188.988C223.159 179.621 221.476 169.735 221.543 159.783C221.543 146.383 224.727 132.505 229.58 124.458C237.346 111.449 250.594 104.306 266.635 104.306C278.998 104.306 289.828 108.517 297.593 116.24C301.663 120.241 304.833 125.065 306.891 130.391C310.265 139.795 311.949 149.723 311.863 159.715C311.863 173.115 308.679 187.147 303.843 195.177C296.197 207.929 282.812 215.073 266.635 215.073C254.153 215.005 243.595 210.913 235.813 203.139ZM247.733 158.811C247.733 181.64 254.221 193.37 266.839 193.37C279.458 193.37 285.69 181.896 285.69 159.272C285.622 137.33 278.947 125.822 266.635 125.822C254.664 125.822 247.665 137.977 247.665 158.76L247.733 158.811Z" fill="white"/>
<path d="M318.471 168.188C324.209 161.812 324.209 161.812 330.697 154.174L358.352 121.781C362.671 117.027 366.627 111.955 370.187 106.607H396.309C395.561 113.634 395.22 120.699 395.287 127.765V169.211H398.982C403.202 169.171 407.413 168.829 411.584 168.188V191.409C407.443 190.895 403.274 190.638 399.102 190.642H395.287V197.018C395.166 202.266 395.508 207.515 396.309 212.703H370.068C370.785 207.421 371.127 202.093 371.089 196.762V190.608H335.04C326.764 190.608 323.12 190.727 318.471 191.102V168.188ZM371.26 154.685C371.26 148.94 371.515 141.933 372.026 136.324C369.472 139.887 367.564 142.444 364.125 146.775L345.478 169.467H371.209L371.26 154.685Z" fill="white"/>
<path d="M122.793 250.058C124.938 249.706 127.108 249.535 129.281 249.546C131.918 249.346 134.536 250.122 136.638 251.728C137.395 252.422 137.993 253.272 138.39 254.22C138.787 255.168 138.974 256.191 138.937 257.218C138.989 258.241 138.837 259.264 138.489 260.227C138.141 261.191 137.604 262.075 136.91 262.827C135.837 263.825 134.573 264.594 133.194 265.089C131.816 265.585 130.352 265.795 128.89 265.709C127.981 265.742 127.071 265.661 126.182 265.47V275.989H122.776L122.793 250.058ZM126.199 262.708C127.114 262.92 128.053 263.012 128.992 262.981C133.079 262.981 135.565 261.003 135.565 257.372C135.565 253.74 133.113 252.257 129.384 252.257C128.315 252.228 127.247 252.319 126.199 252.53V262.708Z" fill="white"/>
<path d="M144.42 267.737L141.696 275.989H138.29L147.179 249.751H151.232L160.172 275.989H156.562L153.769 267.737H144.42ZM152.935 265.095L150.363 257.542C149.784 255.837 149.393 254.269 149.001 252.751C148.626 254.303 148.184 255.905 147.69 257.491L145.119 265.095H152.935Z" fill="white"/>
<path d="M183.382 274.813C180.798 275.747 178.075 276.237 175.327 276.262C173.537 276.434 171.731 276.212 170.035 275.611C168.34 275.009 166.797 274.043 165.514 272.78C164.232 271.517 163.242 269.989 162.613 268.302C161.984 266.614 161.732 264.81 161.875 263.015C161.875 255.189 167.273 249.478 176.06 249.478C178.3 249.423 180.526 249.835 182.599 250.688L181.781 253.45C179.958 252.651 177.981 252.267 175.991 252.325C169.606 252.325 165.451 256.297 165.451 262.861C165.451 269.425 169.452 273.466 175.566 273.466C177.103 273.547 178.641 273.303 180.078 272.75V264.941H174.748V262.213H183.382V274.813Z" fill="white"/>
<path d="M202.114 263.68H191.897V273.142H203.255V275.989H188.508V249.751H202.676V252.598H191.931V260.884H202.148L202.114 263.68Z" fill="white"/>
<path d="M215.94 275.989V249.751H219.636L228.031 263.015C229.779 265.755 231.355 268.602 232.748 271.539C232.441 268.129 232.356 264.856 232.356 260.764V249.785H235.557V276.023H232.152L223.825 262.708C222.018 259.887 220.38 256.96 218.92 253.945H218.801C219.006 257.269 219.074 260.423 219.074 264.771V275.989H215.94Z" fill="white"/>
<path d="M263.911 262.589C263.911 271.624 258.427 276.415 251.735 276.415C245.043 276.415 239.951 271.045 239.951 263.1C239.951 254.763 245.06 249.324 252.127 249.324C259.194 249.324 263.911 254.814 263.911 262.589ZM243.578 263.015C243.578 268.624 246.609 273.653 251.939 273.653C257.269 273.653 260.335 268.709 260.335 262.742C260.335 257.542 257.61 252.086 251.973 252.086C246.337 252.086 243.578 257.269 243.578 263.015Z" fill="white"/>
<path d="M272.306 252.632H264.337V249.751H283.75V252.632H275.729V275.989H272.323L272.306 252.632Z" fill="white"/>
<path d="M294.903 249.751H309.02V252.598H298.291V261.31H308.202V264.106H298.291V276.04H294.886L294.903 249.751Z" fill="white"/>
<path d="M336.231 262.589C336.231 271.624 330.748 276.415 324.073 276.415C317.142 276.415 312.289 271.045 312.289 263.1C312.289 254.763 317.398 249.324 324.448 249.324C331.497 249.324 336.231 254.814 336.231 262.589ZM315.899 263.015C315.899 268.624 318.93 273.653 324.26 273.653C329.59 273.653 332.655 268.709 332.655 262.742C332.655 257.542 329.931 252.086 324.294 252.086C318.658 252.086 315.899 257.269 315.899 263.015Z" fill="white"/>
<path d="M344.014 249.751V265.282C344.014 271.164 346.619 273.653 350.127 273.653C354.01 273.653 356.496 271.079 356.496 265.282V249.751H359.902V265.095C359.902 273.159 355.662 276.466 349.991 276.466C344.627 276.466 340.574 273.398 340.574 265.248V249.802L344.014 249.751Z" fill="white"/>
<path d="M365.793 275.989V249.751H369.488L377.883 263.015C379.633 265.751 381.203 268.599 382.583 271.539H382.668C382.362 268.129 382.277 264.856 382.277 260.764V249.785H385.461V276.023H382.055L373.745 262.708C371.932 259.891 370.294 256.964 368.841 253.945H368.722C368.909 257.269 368.994 260.423 368.994 264.771V275.989H365.793Z" fill="white"/>
<path d="M391.336 250.092C393.72 249.733 396.128 249.551 398.539 249.546C403.392 249.546 406.866 250.688 409.148 252.819C410.407 254.031 411.39 255.5 412.028 257.128C412.666 258.755 412.944 260.502 412.843 262.248C412.94 264.119 412.656 265.99 412.01 267.749C411.363 269.507 410.366 271.116 409.08 272.477C406.628 274.932 402.575 276.262 397.483 276.262C395.428 276.246 393.375 276.11 391.336 275.853V250.092ZM394.742 273.295C395.869 273.463 397.008 273.531 398.147 273.5C405.385 273.5 409.301 269.442 409.301 262.367C409.301 256.178 405.896 252.24 398.692 252.24C397.361 252.215 396.03 252.335 394.725 252.598L394.742 273.295Z" fill="white"/>
<path d="M104.914 160.346C106.375 161.074 107.62 162.173 108.524 163.534C109.273 165.133 109.64 166.884 109.597 168.649L110.108 179.645C110.339 181.454 110.123 183.293 109.478 184.999C109.134 185.84 108.506 186.534 107.702 186.958C106.899 187.382 105.972 187.509 105.085 187.317C105.737 189.458 105.948 191.708 105.705 193.933C105.462 196.157 104.77 198.309 103.671 200.257C103.121 201.078 102.69 201.974 102.394 202.917C102.253 204.055 102.31 205.209 102.564 206.327C102.951 209.085 102.745 211.894 101.961 214.567C101.177 217.239 99.8324 219.713 98.0177 221.824C97.4629 222.516 96.7808 223.095 96.0083 223.529C94.9953 223.962 93.9081 224.193 92.8069 224.211L87.8005 224.637C87.553 224.719 87.2901 224.742 87.0322 224.706C86.7742 224.669 86.528 224.574 86.3126 224.428C86.0971 224.281 85.9181 224.087 85.7893 223.86C85.6605 223.634 85.5854 223.38 85.5697 223.12C81.7684 211.048 80.041 198.417 80.4611 185.766C80.658 179.391 81.4217 173.046 82.743 166.807C83.5433 163.159 85.1099 157.601 89.0095 156.118C94.05 154.344 100.555 157.84 104.914 160.346Z" fill="#EEA886"/>
<path d="M433.772 160.346C432.311 161.074 431.066 162.173 430.162 163.534C429.414 165.133 429.046 166.884 429.089 168.649L428.578 179.645C428.347 181.454 428.563 183.293 429.208 184.999C429.552 185.84 430.18 186.534 430.984 186.958C431.787 187.382 432.714 187.509 433.602 187.317C432.951 189.457 432.739 191.706 432.979 193.93C433.219 196.154 433.906 198.306 434.998 200.257C435.561 201.074 435.997 201.97 436.292 202.917C436.436 204.056 436.373 205.211 436.105 206.327C435.727 209.086 435.938 211.895 436.724 214.566C437.511 217.238 438.856 219.712 440.669 221.824C441.223 222.516 441.905 223.095 442.678 223.529C443.691 223.962 444.778 224.193 445.879 224.211L450.937 224.706C451.184 224.787 451.447 224.81 451.705 224.774C451.963 224.738 452.209 224.643 452.425 224.496C452.64 224.349 452.819 224.155 452.948 223.929C453.077 223.702 453.152 223.449 453.168 223.188C456.969 211.116 458.696 198.485 458.276 185.834C458.082 179.458 457.312 173.113 455.977 166.875C455.194 163.227 454.274 158.658 450.409 157.175C445.317 155.316 438.131 157.84 433.772 160.346Z" fill="#EEA886"/>
</g>
<defs>
<linearGradient id="paint0_linear" x1="266.874" y1="441.569" x2="271.841" y2="582.291" gradientUnits="userSpaceOnUse">
<stop stop-opacity="0"/>
<stop offset="0.95"/>
</linearGradient>
<linearGradient id="paint1_linear" x1="115.284" y1="394.906" x2="110.317" y2="198.706" gradientUnits="userSpaceOnUse">
<stop stop-opacity="0"/>
<stop offset="0.99"/>
</linearGradient>
<linearGradient id="paint2_linear" x1="7896.13" y1="19470.7" x2="7374.72" y2="13093.9" gradientUnits="userSpaceOnUse">
<stop stop-opacity="0"/>
<stop offset="0.95"/>
</linearGradient>
<linearGradient id="paint3_linear" x1="55944.2" y1="54301.8" x2="56594.1" y2="18657.6" gradientUnits="userSpaceOnUse">
<stop stop-opacity="0"/>
<stop offset="0.99"/>
</linearGradient>
<clipPath id="clip0">
<rect width="537" height="521" fill="white"/>
</clipPath>
</defs>
</svg>
